<svg width="600" height="400" xmlns="http://www.w3.org/2000/svg">
  <rect width="100%" height="100%" fill="white" />
  <g>
    <rect x="0" y="0" width="50" height="50" fill="black" />
    <rect x="100" y="0" width="50" height="50" fill="black" />
    <rect x="200" y="0" width="50" height="50" fill="black" />
    <rect x="300" y="0" width="50" height="50" fill="black" />
    <rect x="400" y="0" width="50" height="50" fill="black" />
    <rect x="500" y="0" width="50" height="50" fill="black" />
    
    <rect x="50" y="50" width="50" height="50" fill="black" />
    <rect x="150" y="50" width="50" height="50" fill="black" />
    <rect x="250" y="50" width="50" height="50" fill="black" />
    <rect x="350" y="50" width="50" height="50" fill="black" />
    <rect x="450" y="50" width="50" height="50" fill="black" />
    <rect x="550" y="50" width="50" height="50" fill="black" />
    
    <rect x="0" y="100" width="50" height="50" fill="black" />
    <rect x="100" y="100" width="50" height="50" fill="black" />
    <rect x="200" y="100" width="50" height="50" fill="black" />
    <rect x="300" y="100" width="50" height="50" fill="black" />
    <rect x="400" y="100" width="50" height="50" fill="black" />
    <rect x="500" y="100" width="50" height="50" fill="black" />
    
    <rect x="50" y="150" width="50" height="50" fill="black" />
    <rect x="150" y="150" width="50" height="50" fill="black" />
    <rect x="250" y="150" width="50" height="50" fill="black" />
    <rect x="350" y="150" width="50" height="50" fill="black" />
    <rect x="450" y="150" width="50" height="50" fill="black" />
    <rect x="550" y="150" width="50" height="50" fill="black" />
    
    <rect x="0" y="200" width="50" height="50" fill="black" />
    <rect x="100" y="200" width="50" height="50" fill="black" />
    <rect x="200" y="200" width="50" height="50" fill="black" />
    <rect x="300" y="200" width="50" height="50" fill="black" />
    <rect x="400" y="200" width="50" height="50" fill="black" />
    <rect x="500" y="200" width="50" height="50" fill="black" />
    
    <rect x="50" y="250" width="50" height="50" fill="black" />
    <rect x="150" y="250" width="50" height="50" fill="black" />
    <rect x="250" y="250" width="50" height="50" fill="black" />
    <rect x="350" y="250" width="50" height="50" fill="black" />
    <rect x="450" y="250" width="50" height="50" fill="black" />
    <rect x="550" y="250" width="50" height="50" fill="black" />
    
    <rect x="0" y="300" width="50" height="50" fill="black" />
    <rect x="100" y="300" width="50" height="50" fill="black" />
    <rect x="200" y="300" width="50" height="50" fill="black" />
    <rect x="300" y="300" width="50" height="50" fill="black" />
    <rect x="400" y="300" width="50" height="50" fill="black" />
    <rect x="500" y="300" width="50" height="50" fill="black" />
    
    <rect x="50" y="350" width="50" height="50" fill="black" />
    <rect x="150" y="350" width="50" height="50" fill="black" />
    <rect x="250" y="350" width="50" height="50" fill="black" />
    <rect x="350" y="350" width="50" height="50" fill="black" />
    <rect x="450" y="350" width="50" height="50" fill="black" />
    <rect x="550" y="350" width="50" height="50" fill="black" />
  </g>
</svg>