<svg width="600" height="400" xmlns="http://www.w3.org/2000/svg">
  <rect width="100%" height="100%" fill="white" />
  <g>
    <circle cx="60" cy="50" r="30" fill="black" />
    <circle cx="60" cy="150" r="25" fill="black" />
    <circle cx="60" cy="250" r="20" fill="black" />
    <circle cx="60" cy="350" r="15" fill="black" />
    
    <circle cx="180" cy="50" r="25" fill="black" />
    <circle cx="180" cy="150" r="20" fill="black" />
    <circle cx="180" cy="250" r="15" fill="black" />
    <circle cx="180" cy="350" r="10" fill="black" />
    
    <circle cx="300" cy="50" r="20" fill="black" />
    <circle cx="300" cy="150" r="15" fill="black" />
    <circle cx="300" cy="250" r="10" fill="black" />
    <circle cx="300" cy="350" r="5" fill="black" />
    
    <circle cx="420" cy="50" r="15" fill="black" />
    <circle cx="420" cy="150" r="10" fill="black" />
    <circle cx="420" cy="250" r="5" fill="black" />
    <circle cx="420" cy="350" r="2" fill="black" />
    
    <circle cx="540" cy="50" r="10" fill="black" />
    <circle cx="540" cy="150" r="5" fill="black" />
    <circle cx="540" cy="250" r="2" fill="black" />
    <circle cx="540" cy="350" r="1" fill="black" />
  </g>
</svg>