<svg width="600" height="400" xmlns="http://www.w3.org/2000/svg">
  <rect width="100%" height="100%" fill="white" />
  <circle cx="300" cy="200" r="150" fill="black" />
  
  <!-- Spiral of white dots -->
  <g fill="white">
    <circle cx="300" cy="200" r="5" />
    <circle cx="317" cy="250" r="5" />
    <circle cx="275" cy="285" r="5" />
    <circle cx="225" cy="260" r="5" />
    <circle cx="215" cy="200" r="5" />
    <circle cx="250" cy="150" r="5" />
    <circle cx="300" cy="140" r="5" />
    <circle cx="350" cy="170" r="5" />
    <circle cx="370" cy="220" r="5" />
    <circle cx="350" cy="270" r="5" />
    <circle cx="300" cy="290" r="5" />
    <circle cx="250" cy="270" r="5" />
    <circle cx="230" cy="220" r="5" />
    <circle cx="250" cy="170" r="5" />
    <circle cx="300" cy="160" r="5" />
    <circle cx="340" cy="190" r="5" />
    <circle cx="350" cy="230" r="5" />
    <circle cx="330" cy="270" r="5" />
    <circle cx="290" cy="280" r="5" />
    <circle cx="260" cy="260" r="5" />
    <circle cx="245" cy="220" r="5" />
    <circle cx="260" cy="180" r="5" />
    <circle cx="300" cy="175" r="5" />
    <circle cx="330" cy="195" r="5" />
    <circle cx="340" cy="230" r="5" />
    <circle cx="320" cy="260" r="5" />
    <circle cx="290" cy="270" r="5" />
    <circle cx="270" cy="250" r="5" />
    <circle cx="265" cy="220" r="5" />
    <circle cx="275" cy="190" r="5" />
    <circle cx="300" cy="185" r="5" />
    <circle cx="320" cy="200" r="5" />
    <circle cx="325" cy="225" r="5" />
    <circle cx="310" cy="245" r="5" />
    <circle cx="290" cy="250" r="5" />
    <circle cx="275" cy="235" r="5" />
    <circle cx="275" cy="215" r="5" />
    <circle cx="285" cy="200" r="5" />
    <circle cx="300" cy="195" r="5" />
    <circle cx="315" cy="205" r="5" />
    <circle cx="315" cy="220" r="5" />
    <circle cx="305" cy="235" r="5" />
    <circle cx="290" cy="235" r="5" />
    <circle cx="285" cy="220" r="5" />
    <circle cx="290" cy="210" r="5" />
    <circle cx="300" cy="205" r="5" />
    <circle cx="310" cy="210" r="5" />
    <circle cx="310" cy="220" r="5" />
    <circle cx="300" cy="225" r="5" />
    <circle cx="295" cy="220" r="5" />
    <circle cx="295" cy="215" r="5" />
    <circle cx="300" cy="215" r="5" />
    <circle cx="305" cy="215" r="5" />
    <circle cx="300" cy="220" r="5" />
  </g>
</svg>